<?xml version="1.0" encoding="UTF-8"?>
<svg version="1.1" xmlns="http://www.w3.org/2000/svg" width="1024" height="1024">
<path d="M0 0 C337.92 0 675.84 0 1024 0 C1024 337.92 1024 675.84 1024 1024 C686.08 1024 348.16 1024 0 1024 C0 686.08 0 348.16 0 0 Z " fill="#0D1528" transform="translate(0,0)"/>
<path d="M0 0 C1.30831787 -0.00137466 2.61663574 -0.00274933 3.96459961 -0.00416565 C5.41770958 -0.00062648 6.87081932 0.00300833 8.32392883 0.00672913 C9.8514455 0.00701115 11.3789623 0.00685297 12.90647888 0.00628662 C17.05700714 0.00599923 21.20750661 0.01188665 25.35802817 0.01886058 C29.69421986 0.02510371 34.03041218 0.02569868 38.36660767 0.02688599 C46.57947695 0.02999646 54.79233296 0.03820605 63.00519639 0.04823548 C72.35454212 0.05940539 81.70388848 0.06490928 91.05323923 0.06993091 C110.2871127 0.08038889 129.5209738 0.09798287 148.75483704 0.12025452 C148.75825544 1.16628719 148.76167385 2.21231987 148.76519585 3.29005051 C148.76747775 3.9871644 148.76975965 4.68427829 148.7721107 5.40251684 C148.77725085 6.97775688 148.78235993 8.55299702 148.78744054 10.12823725 C148.80155939 14.49108693 148.81624013 18.85393355 148.83195305 23.2167778 C148.86098606 31.42177249 148.88342292 39.62641713 148.87146378 47.8314743 C148.87280193 51.081136 148.89877836 54.33020466 148.93351746 57.57966614 C148.94494415 59.16409769 148.9448884 60.74864081 148.93522644 62.33308411 C148.8782642 73.44360284 149.45302005 83.46015376 157.56321716 92.03144836 C159.54775148 93.65537093 161.50080113 94.90141991 163.75483704 96.12025452 C164.74820572 96.66743134 164.74820572 96.66743134 165.76164246 97.22566223 C173.8650673 101.00683329 181.97435392 100.6298479 190.70014954 100.51087952 C192.32252805 100.50340488 193.94491569 100.49771774 195.56730652 100.49372864 C199.8056346 100.47856829 204.04340092 100.43937155 208.2815094 100.39491272 C212.61889551 100.3537508 216.95637376 100.33567328 221.29389954 100.31556702 C229.78113445 100.27286606 238.26791556 100.2047339 246.75483704 100.12025452 C247.01224358 117.67945687 247.20598837 135.23806734 247.32477093 152.79872704 C247.38139992 160.95325814 247.45854574 169.10661445 247.58467102 177.26039124 C247.69460071 184.37056496 247.76534404 191.47988771 247.78981048 198.59088767 C247.80410552 202.35376685 247.83748517 206.11421258 247.91786766 209.87630844 C247.99306167 213.42462975 248.01546705 216.96953899 247.99902153 220.51858139 C248.00344783 222.42793825 248.0623842 224.33693061 248.12345886 226.24531555 C248.05372303 231.58606293 247.78944839 234.84403718 244.35837746 239.07634354 C241.59347324 241.61909045 238.78297687 243.90102481 235.75483704 246.12025452 C234.46144029 247.14445385 233.16835016 248.16904089 231.87593079 249.19447327 C230.65627281 250.07702081 229.42811409 250.94792266 228.19233704 251.80775452 C227.4909259 252.2970343 226.78951477 252.78631409 226.06684875 253.29042053 C195.19086415 274.35777233 160.69381658 288.93982341 125.94233704 302.24525452 C125.30161255 302.49180786 124.66088806 302.73836121 124.00074768 302.99238586 C122.18525112 303.68907689 120.36659068 304.3775062 118.54780579 305.06556702 C117.50132874 305.4627594 116.45485168 305.85995178 115.37666321 306.2691803 C112.75483704 307.12025452 112.75483704 307.12025452 109.75483704 307.12025452 C109.6633136 306.11736389 109.57179016 305.11447327 109.47749329 304.08119202 C108.87303368 299.89938275 107.21668526 296.41870129 105.19233704 292.74525452 C104.83373596 292.08896057 104.47513489 291.43266663 104.10566711 290.75648499 C95.07989528 274.74970397 78.76375708 263.51140343 62.75483704 255.12025452 C62.75483704 254.46025452 62.75483704 253.80025452 62.75483704 253.12025452 C62.08065735 253.03002014 61.40647766 252.93978577 60.71186829 252.84681702 C56.98892541 251.93206487 53.81335889 250.26442283 50.44233704 248.49525452 C42.35386862 244.35089697 34.12816596 240.65267938 25.75483704 237.12025452 C24.87126526 236.74594299 23.98769348 236.37163147 23.0773468 235.98597717 C15.50365173 232.80053889 7.86639617 229.80458279 0.19233704 226.87025452 C-1.54886414 226.20123108 -1.54886414 226.20123108 -3.32524109 225.51869202 C-9.25324353 223.23083452 -9.25324353 223.23083452 -15.24516296 221.12025452 C-13.96361523 218.45798731 -12.56963849 215.99147205 -10.92485046 213.53822327 C0.74115147 195.95653473 12.92337598 176.67547036 12.94233704 154.87025452 C12.96070618 153.78164124 12.96070618 153.78164124 12.97944641 152.67103577 C12.9933133 147.48481759 12.08825987 143.12579884 10.75483704 138.12025452 C10.30607753 133.09262689 10.7301493 128.07151217 11.25093079 123.06166077 C14.00113058 93.44049356 9.70584371 67.13607918 -9.07719421 43.44837952 C-11.29452408 41.06724691 -13.55535294 39.5525366 -16.24516296 37.74525452 C-19.61036871 34.91568706 -20.52616691 32.71006921 -20.98735046 28.45619202 C-21.06627495 26.67874671 -21.10985456 24.89942136 -21.12016296 23.12025452 C-21.13176453 21.83755676 -21.13176453 21.83755676 -21.14360046 20.52894592 C-20.91416977 14.3283424 -19.24013125 9.89867572 -15.24516296 5.12025452 C-10.09270619 1.10133823 -6.44434232 -0.00520965 0 0 Z " fill="#4077DC" transform="translate(562.2451629638672,262.87974548339844)"/>
<path d="M0 0 C13.24962415 11.37739465 21.2382465 27.39877258 23.125 44.78125 C23.93359352 56.13437174 23.29715146 67.21056345 21.19287109 78.3894043 C20.27398521 83.28413388 19.82270212 87.79333506 20.125 92.78125 C20.785 93.585625 21.445 94.39 22.125 95.21875 C24.64351852 98.44560185 24.70959965 100.32315039 24.50390625 104.32421875 C23.24170045 112.50903779 19.07499815 120.04154285 13.125 125.78125 C12.24714844 126.07 11.36929688 126.35875 10.46484375 126.65625 C9.69269531 127.0275 8.92054688 127.39875 8.125 127.78125 C7.5019277 130.46156663 7.5019277 130.46156663 7.125 133.78125 C5.93236093 136.9711561 4.47099976 140.02391611 3 143.09375 C2.59982666 143.94243652 2.19965332 144.79112305 1.78735352 145.66552734 C-0.40097393 150.17783854 -2.62800403 154.09593051 -5.9375 157.90625 C-8.37499475 160.76127858 -9.33418839 162.49746216 -9.4375 166.28125 C-9.26446667 168.53532497 -9.26446667 168.53532497 -8.875 170.78125 C-8.76542969 171.53535156 -8.65585937 172.28945313 -8.54296875 173.06640625 C-7.0837547 181.01707722 -4.51050862 186.98006841 2.125 191.78125 C5.18371383 193.16274084 5.18371383 193.16274084 8.55078125 194.26171875 C9.16725021 194.47597 9.78371918 194.69022125 10.41886902 194.91096497 C11.73852926 195.36855157 13.05973513 195.82170101 14.38232422 196.27075195 C17.872476 197.45610999 21.35119786 198.67433202 24.83203125 199.88671875 C25.53236481 200.12953583 26.23269836 200.37235291 26.95425415 200.62252808 C33.54726569 202.91281669 40.09300493 205.32239498 46.625 207.78125 C47.58962158 208.1424292 48.55424316 208.5036084 49.5480957 208.87573242 C58.70429726 212.32801708 67.54087429 216.32952552 76.375 220.53125 C77.44363281 221.03140625 78.51226563 221.5315625 79.61328125 222.046875 C99.49329316 231.51584787 99.49329316 231.51584787 105 239.96875 C105.3609375 240.51974365 105.721875 241.0707373 106.09375 241.63842773 C111.6972785 250.47834669 115.32622455 259.31757356 115.125 269.78125 C72.51510612 282.06753842 29.84546101 292.86216633 -13.9375 300.03125 C-14.9510556 300.19801239 -15.96461121 300.36477478 -17.00888062 300.53659058 C-37.95785626 303.9646743 -58.91938984 306.79062202 -80.10400391 308.234375 C-82.64146887 308.40737281 -85.17814021 308.58963954 -87.71484375 308.7734375 C-91.94902538 309.07644584 -96.18421232 309.35810647 -100.42077637 309.62567139 C-102.00404969 309.72603855 -103.58715734 309.82907185 -105.17004395 309.93536377 C-120.66970588 310.96125578 -136.17733545 310.93582838 -151.703125 310.91162109 C-155.39582401 310.90590389 -159.08845058 310.90923184 -162.781147 310.91519356 C-165.68467734 310.91885085 -168.5881912 310.91763755 -171.49172211 310.91506577 C-173.49865264 310.91410071 -175.50558388 310.91706757 -177.51251221 310.92019653 C-190.40148296 310.8878392 -203.24062431 310.53832775 -215.875 307.78125 C-220.50565284 287.59467987 -217.92602854 261.15709165 -207.875 242.78125 C-201.58646697 233.06946279 -193.95306878 227.3557295 -183.5625 222.53125 C-182.5619458 222.06090332 -181.5613916 221.59055664 -180.53051758 221.10595703 C-156.91955917 210.20016038 -131.7135255 200.73878129 -106.47851562 194.36401367 C-98.30718523 192.26415783 -93.11074074 189.18509405 -88.76806641 181.93261719 C-88.42437012 181.32063477 -88.08067383 180.70865234 -87.7265625 180.078125 C-86.81003906 178.44617188 -86.81003906 178.44617188 -85.875 176.78125 C-84.76640625 177.34714844 -83.6578125 177.91304687 -82.515625 178.49609375 C-81.05219097 179.23719175 -79.58864333 179.97806544 -78.125 180.71875 C-77.39539063 181.09193359 -76.66578125 181.46511719 -75.9140625 181.84960938 C-75.20507812 182.20732422 -74.49609375 182.56503906 -73.765625 182.93359375 C-73.11625977 183.26351318 -72.46689453 183.59343262 -71.79785156 183.93334961 C-64.3804676 187.20411834 -54.8777564 187.00562255 -47.22265625 184.6640625 C-44.3768167 183.46617047 -41.61222178 182.20847923 -38.875 180.78125 C-40.39867187 180.65169922 -40.39867187 180.65169922 -41.953125 180.51953125 C-60.28700787 178.74521234 -77.72625578 170.37981482 -90.0078125 156.34375 C-95.59681941 149.3717007 -104.875 137.08936834 -104.875 127.78125 C-105.57625 127.61625 -106.2775 127.45125 -107 127.28125 C-113.01054271 124.14531467 -116.63677251 117.41244586 -119.18359375 111.28515625 C-120.49274876 106.54409207 -120.65383688 101.62968499 -119.875 96.78125 C-118.47265625 94.42578125 -118.47265625 94.42578125 -116.875 92.78125 C-116.215 92.78125 -115.555 92.78125 -114.875 92.78125 C-115.07996094 91.73066406 -115.28492188 90.68007813 -115.49609375 89.59765625 C-115.76841213 88.17972263 -116.04053711 86.76175185 -116.3125 85.34375 C-116.44720703 84.65603516 -116.58191406 83.96832031 -116.72070312 83.25976562 C-121.53070474 58.03658642 -120.89551314 32.8210718 -106.875 10.78125 C-97.2551526 -3.0695488 -80.71935072 -11.2870487 -64.5234375 -14.53125 C-42.64631747 -18.21344453 -17.74910023 -13.69767518 0 0 Z " fill="#184FB4" transform="translate(526.875,311.21875)"/>
<path d="M0 0 C18.65531341 4.1879275 39.926849 10.92298676 50.8203125 27.82421875 C55.72153111 37.41660374 57.20386891 50.10973795 54 60.625 C53.38036873 62.10393125 52.70393241 63.559285 52 65 C51.73123047 65.58491211 51.46246094 66.16982422 51.18554688 66.77246094 C47.29807294 75.22833576 43.24684948 83.0218725 37 90 C36.1646875 90.94230469 35.329375 91.88460937 34.46875 92.85546875 C25.32686868 103.04660539 15.81937567 112.5757533 5 121 C4.44666992 121.43505859 3.89333984 121.87011719 3.32324219 122.31835938 C-53.01463217 166.43051059 -120.52786487 194.32321015 -187.41911316 218.01274109 C-191.21459845 219.35744573 -194.99337006 220.74011552 -198.765625 222.1484375 C-204.44856539 224.22042597 -210.22934504 225.84697148 -216.0625 227.4375 C-217.15087158 227.73825439 -218.23924316 228.03900879 -219.3605957 228.34887695 C-221.55076597 228.95381181 -223.74143088 229.55695897 -225.93261719 230.15820312 C-229.45294909 231.12430504 -232.97084594 232.0989526 -236.48803711 233.07641602 C-237.87137579 233.46075354 -239.25496632 233.84418687 -240.63891602 234.22631836 C-241.27756592 234.40300049 -241.91621582 234.57968262 -242.57421875 234.76171875 C-243.24928467 234.94839111 -243.92435059 235.13506348 -244.61987305 235.32739258 C-246.44767627 235.84391713 -248.27131336 236.37520251 -250.09301758 236.9128418 C-258.76397139 239.45414942 -267.47861364 241.54951583 -276.3125 243.4375 C-277.72820645 243.74268137 -279.14389626 244.0479399 -280.55957031 244.35327148 C-284.06655376 245.10731107 -287.57516628 245.85338873 -291.08477783 246.59509277 C-292.83270124 246.96463049 -294.58019241 247.33621115 -296.32763672 247.70800781 C-325.56199768 253.88976423 -355.01861926 258.57958948 -384.74755859 261.56201172 C-388.75002408 261.96650597 -392.74316561 262.43843644 -396.73828125 262.91015625 C-439.94965925 267.62214138 -486.93030205 268.06022086 -530 262 C-531.07695129 261.85081116 -531.07695129 261.85081116 -532.17565918 261.6986084 C-568.39244476 256.65039663 -604.01516013 248.14860165 -637 232 C-638.03374756 231.49750732 -638.03374756 231.49750732 -639.08837891 230.98486328 C-653.75358193 223.76899435 -666.35831608 214.4380393 -678 203 C-679.10988281 201.94425781 -679.10988281 201.94425781 -680.2421875 200.8671875 C-690.08711975 190.79241247 -697.0958331 175.04118015 -698 161 C-698.06445312 160.29875 -698.12890625 159.5975 -698.1953125 158.875 C-698.94567036 144.06793828 -693.10582352 130.59542052 -686 118 C-685.4121875 116.948125 -684.824375 115.89625 -684.21875 114.8125 C-680.381 108.1905 -680.381 108.1905 -678 107 C-678.2475 108.485 -678.2475 108.485 -678.5 110 C-680.94248778 130.25828098 -676.74611389 148.74330389 -664 165 C-648.42095808 184.78747439 -622.66027756 194.85246063 -599 201 C-597.13601563 201.49113281 -597.13601563 201.49113281 -595.234375 201.9921875 C-591.16833911 203.04678042 -587.08883296 204.03786687 -583 205 C-582.2771582 205.17031738 -581.55431641 205.34063477 -580.80957031 205.51611328 C-562.68242395 209.71784825 -544.47080733 211.93412825 -525.90625 213.07421875 C-525.20102077 213.11777308 -524.49579155 213.1613274 -523.76919174 213.20620155 C-507.61791231 214.17928589 -491.4946498 214.27117366 -475.31933594 214.19561768 C-472.36186318 214.18467687 -469.4044347 214.1851997 -466.44694519 214.18561649 C-446.12449401 214.18497818 -425.99142666 213.62700952 -405.75 211.6875 C-405.07314148 211.62275482 -404.39628296 211.55800964 -403.69891357 211.49130249 C-334.64629922 204.83754068 -266.53089814 191.54165634 -200 172 C-198.53786653 171.57209971 -197.07570829 171.14428408 -195.61352539 170.71655273 C-165.60431297 161.93353727 -165.60431297 161.93353727 -136.34960938 150.95751953 C-133.18311884 149.66710225 -129.97945278 148.48934609 -126.77124023 147.30737305 C-104.30111606 138.99775707 -82.18160214 129.18939107 -61 118 C-60.27844727 117.62520508 -59.55689453 117.25041016 -58.81347656 116.86425781 C-49.03676397 111.76355464 -39.75614024 106.02456812 -30.5625 99.9375 C-29.57991211 99.28894043 -28.59732422 98.64038086 -27.58496094 97.97216797 C-7.86536376 84.71817614 15.67484388 66.67159486 21 42 C22.17868421 30.42203863 19.99114868 22.36126792 12.80859375 13.20703125 C8.86427715 8.68875318 4.6876213 4.72605796 0 1 C0 0.67 0 0.34 0 0 Z " fill="#4A87E1" transform="translate(828,434)"/>
<path d="M0 0 C13.24962415 11.37739465 21.2382465 27.39877258 23.125 44.78125 C23.93359352 56.13437174 23.29715146 67.21056345 21.19287109 78.3894043 C20.27398521 83.28413388 19.82270212 87.79333506 20.125 92.78125 C20.785 93.585625 21.445 94.39 22.125 95.21875 C24.64351852 98.44560185 24.70959965 100.32315039 24.50390625 104.32421875 C23.24170045 112.50903779 19.07499815 120.04154285 13.125 125.78125 C12.24714844 126.07 11.36929688 126.35875 10.46484375 126.65625 C9.69269531 127.0275 8.92054688 127.39875 8.125 127.78125 C7.51044488 130.45172376 7.51044488 130.45172376 7.125 133.78125 C5.88918468 137.05411551 4.3829755 140.18871389 2.875 143.34375 C2.49214844 144.18099609 2.10929688 145.01824219 1.71484375 145.88085938 C-0.56856168 150.70350329 -2.82203045 154.18992522 -6.875 157.78125 C-8.87518174 160.20571272 -10.77338785 162.63447689 -12.5625 165.21875 C-15.84197202 168.85275954 -19.71196597 171.24976275 -23.875 173.78125 C-24.94363281 174.48507812 -26.01226562 175.18890625 -27.11328125 175.9140625 C-31.23851635 178.24842041 -35.08122385 178.48597494 -39.75 178.59375 C-40.54720459 178.62235107 -41.34440918 178.65095215 -42.16577148 178.68041992 C-59.21982489 179.17795347 -73.67654165 172.14973661 -86.2421875 160.53125 C-93.23968113 153.03154391 -104.875 138.72677291 -104.875 127.78125 C-105.57625 127.61625 -106.2775 127.45125 -107 127.28125 C-113.01054271 124.14531467 -116.63677251 117.41244586 -119.18359375 111.28515625 C-120.49274876 106.54409207 -120.65383688 101.62968499 -119.875 96.78125 C-118.47265625 94.42578125 -118.47265625 94.42578125 -116.875 92.78125 C-116.215 92.78125 -115.555 92.78125 -114.875 92.78125 C-115.07996094 91.73066406 -115.28492188 90.68007813 -115.49609375 89.59765625 C-115.76841213 88.17972263 -116.04053711 86.76175185 -116.3125 85.34375 C-116.44720703 84.65603516 -116.58191406 83.96832031 -116.72070312 83.25976562 C-121.53070474 58.03658642 -120.89551314 32.8210718 -106.875 10.78125 C-97.2551526 -3.0695488 -80.71935072 -11.2870487 -64.5234375 -14.53125 C-42.64631747 -18.21344453 -17.74910023 -13.69767518 0 0 Z " fill="#34C1F1" transform="translate(526.875,311.21875)"/>
<path d="M0 0 C0.11697768 16.92478071 0.20505852 33.84943464 0.25906086 50.77452755 C0.28480538 58.63375833 0.31988354 66.49273744 0.37719727 74.35180664 C0.42714785 81.20450168 0.45931828 88.05701438 0.47044247 94.90988642 C0.47694171 98.53607521 0.49213679 102.16174251 0.52865028 105.7877636 C0.56915226 109.84303458 0.56994201 113.89740808 0.56762695 117.95288086 C0.58560333 119.14547012 0.60357971 120.33805939 0.62210083 121.56678772 C0.57605899 129.0332556 -0.73237733 133.87159778 -5 140 C-11.86776722 150.96990179 -15.75969636 161.48291463 -19 174 C-19.34160156 175.25167969 -19.68320312 176.50335937 -20.03515625 177.79296875 C-22.28965169 186.90532475 -22.30450859 195.68429286 -22 205 C-26.16772298 206.14226482 -29.07768094 205.77796267 -33.25 204.75 C-34.39210938 204.46898437 -35.53421875 204.18796875 -36.7109375 203.8984375 C-40.13965835 202.96185104 -43.47909471 201.90058377 -46.8046875 200.6484375 C-49.82540218 199.75619793 -52.883441 199.42582867 -56 199 C-56.07003224 175.20886806 -56.12295979 151.41775152 -56.15543652 127.62653732 C-56.17091577 116.58025419 -56.1920255 105.53403504 -56.22631836 94.48779297 C-56.25618832 84.86165648 -56.2755673 75.23556632 -56.28226548 65.60938478 C-56.28618181 60.51078956 -56.29540771 55.41232691 -56.31719017 50.31377411 C-56.33751734 45.5170982 -56.34384144 40.72060977 -56.33932304 35.92389488 C-56.34014994 34.161427 -56.34613799 32.39895299 -56.35761642 30.63652229 C-56.37250174 28.23358488 -56.36896838 25.831359 -56.36076355 23.42840576 C-56.36950207 22.72801359 -56.3782406 22.02762142 -56.38724393 21.30600524 C-56.34984594 17.26498277 -55.92094091 14.87792388 -53 12 C-50.77709961 11.09033203 -50.77709961 11.09033203 -48.15234375 10.5078125 C-47.1662915 10.2804541 -46.18023926 10.0530957 -45.16430664 9.81884766 C-44.09946045 9.58987793 -43.03461426 9.3609082 -41.9375 9.125 C-40.29479126 8.7525415 -40.29479126 8.7525415 -38.61889648 8.37255859 C-36.28994052 7.84516671 -33.95956138 7.32402732 -31.62792969 6.80859375 C-27.95686486 5.99038603 -24.29436549 5.14096125 -20.6328125 4.28125 C-11.03465847 2.03185624 -11.03465847 2.03185624 -7.00390625 1.1015625 C-6.08424072 0.88838379 -5.1645752 0.67520508 -4.21704102 0.45556641 C-2 0 -2 0 0 0 Z " fill="#24A5E1" transform="translate(299,407)"/>
<path d="M0 0 C0 46.53 0 93.06 0 141 C-2.475 141.99 -2.475 141.99 -5 143 C-6.16044566 143.70399718 -7.301838 144.44037404 -8.421875 145.20703125 C-14.36595199 149.00928707 -20.84203971 151.77202602 -27.25 154.6875 C-29.15283149 155.55951042 -31.05496178 156.43303503 -32.95697021 157.30683899 C-34.67103879 158.09331899 -36.38674268 158.87623212 -38.10253906 159.65893555 C-39.80633119 160.44752083 -41.49530487 161.27291502 -43.13964844 162.17895508 C-45 163 -45 163 -49 163 C-49.20625 163.61875 -49.4125 164.2375 -49.625 164.875 C-51.5411133 167.83626601 -53.70551895 168.01960484 -57 169 C-57.11677808 149.00731401 -57.20496107 129.01469718 -57.25906086 109.02174091 C-57.28484752 99.73874323 -57.32000681 90.45595741 -57.37719727 81.1730957 C-57.42701817 73.08256823 -57.45928766 64.99219418 -57.47044247 56.90151757 C-57.47696351 52.61709267 -57.49229899 48.33310669 -57.52865028 44.0488224 C-57.56258929 40.01617169 -57.57305739 35.98414067 -57.56553841 31.9513607 C-57.56691391 30.47148648 -57.57685955 28.99159154 -57.59602737 27.51184082 C-57.62092478 25.49061584 -57.61193804 23.46905831 -57.60127258 21.44770813 C-57.60588155 20.31666814 -57.61049051 19.18562815 -57.61523914 18.02031422 C-56.80519169 14.04365269 -55.07776734 12.55169881 -52 10 C-49.79992676 9.06378174 -49.79992676 9.06378174 -47.56445312 8.62207031 C-46.7200769 8.44548889 -45.87570068 8.26890747 -45.0057373 8.0869751 C-44.10665649 7.91905457 -43.20757568 7.75113403 -42.28125 7.578125 C-41.34575317 7.38780701 -40.41025635 7.19748901 -39.44641113 7.00140381 C-36.46753611 6.39965292 -33.4842369 5.82450292 -30.5 5.25 C-28.49313969 4.84940516 -26.48662408 4.44707931 -24.48046875 4.04296875 C-20.0122324 3.14650752 -15.5413412 2.26556237 -11.06616211 1.40441895 C-9.42115975 1.08243544 -7.78089651 0.73626367 -6.14257812 0.38183594 C-4 0 -4 0 0 0 Z " fill="#2BB1E7" transform="translate(379,354)"/>
<path d="M0 0 C0.66 0.33 1.32 0.66 2 1 C-2.75770663 4.75917561 -7.56068926 8.41937317 -12.5 11.9375 C-15.84801928 14.35193698 -18.97946133 16.81422096 -22 19.625 C-38.34150511 34.49958365 -57.7181424 45.84968813 -76.82080078 56.74365234 C-78.67419644 57.81216837 -80.50915887 58.91255571 -82.33984375 60.01953125 C-113.01561396 78.39404682 -148.1906109 91.61794282 -182.57910156 101.06054688 C-185.09257185 101.75080049 -187.60482655 102.44481911 -190.11621094 103.14257812 C-226.68694675 113.29270388 -263.41050098 121.45232866 -301.0625 126.375 C-302.96950684 126.62660889 -302.96950684 126.62660889 -304.91503906 126.88330078 C-311.34289542 127.68699957 -317.5280852 128.06848587 -324 128 C-324.33 128.33 -324.66 128.66 -325 129 C-343.35285369 131.46685528 -362.18031051 131.3240177 -380.65551758 131.26074219 C-384.02296564 131.24931397 -387.39009842 131.25615768 -390.75753593 131.26763153 C-433.82534862 131.39155046 -433.82534862 131.39155046 -444 128 C-444 127.34 -444 126.68 -444 126 C-433.11 125.01 -433.11 125.01 -422 124 C-422 123.67 -422 123.34 -422 123 C-420.9996875 122.96261719 -419.999375 122.92523437 -418.96875 122.88671875 C-338.94633059 119.48250161 -258.68856919 103.52519817 -182 81 C-180.53786653 80.57209971 -179.07570829 80.14428408 -177.61352539 79.71655273 C-147.60431297 70.93353727 -147.60431297 70.93353727 -118.34960938 59.95751953 C-115.18311884 58.66710225 -111.97945278 57.48934609 -108.77124023 56.30737305 C-86.30111606 47.99775707 -64.18160214 38.18939107 -43 27 C-42.27844727 26.62520508 -41.55689453 26.25041016 -40.81347656 25.86425781 C-19.04474923 14.80309681 -19.04474923 14.80309681 0 0 Z " fill="#6A8FEB" transform="translate(810,525)"/>
<path d="M0 0 C0 43.89 0 87.78 0 133 C-0.99 133 -1.98 133 -3 133 C-3 132.34 -3 131.68 -3 131 C-3.53882813 130.87496094 -4.07765625 130.74992188 -4.6328125 130.62109375 C-19.30111191 126.77248054 -33.16569095 118.58995734 -42 106 C-45.97847405 99.14263016 -48.14698477 93.51426249 -48.17700195 85.56274414 C-48.18357315 84.80795273 -48.19014435 84.05316132 -48.19691467 83.27549744 C-48.21662002 80.77871602 -48.22830203 78.28199458 -48.23828125 75.78515625 C-48.24235678 74.93236021 -48.2464323 74.07956417 -48.25063133 73.20092583 C-48.27147697 68.69002398 -48.28578706 64.17915246 -48.29516602 59.66821289 C-48.30624734 55.00622761 -48.34067106 50.34471742 -48.38033772 45.68290043 C-48.40645539 42.09955445 -48.41485335 38.51632274 -48.41844749 34.93288994 C-48.42332344 33.21406267 -48.43496606 31.49524084 -48.45348549 29.77650642 C-48.47778214 27.37283465 -48.47693023 24.97040684 -48.4699707 22.56665039 C-48.48278076 21.85638702 -48.49559082 21.14612366 -48.50878906 20.41433716 C-48.47302203 17.02777718 -48.22881189 15.29425473 -46.12281799 12.58592224 C-43.68626674 10.76561507 -41.81039786 10.11477885 -38.8515625 9.4375 C-37.35266479 9.0811145 -37.35266479 9.0811145 -35.82348633 8.7175293 C-34.2402356 8.36235229 -34.2402356 8.36235229 -32.625 8 C-30.4539952 7.48750317 -28.28341903 6.97318711 -26.11328125 6.45703125 C-25.06350098 6.21033691 -24.0137207 5.96364258 -22.93212891 5.70947266 C-18.14206196 4.55044397 -13.42964985 3.16959373 -8.70703125 1.76171875 C-2.44615385 0 -2.44615385 0 0 0 Z " fill="#1CA3E2" transform="translate(221,465)"/>
<path d="M0 0 C3.96 0 7.92 0 12 0 C12 4.95 12 9.9 12 15 C13.27875 15.103125 14.5575 15.20625 15.875 15.3125 C24.86345581 16.34095968 32.30990634 19.30049832 40 24 C39.27360299 27.70372796 37.73984491 30.82050691 36.0625 34.1875 C35.53785156 35.25355469 35.01320313 36.31960938 34.47265625 37.41796875 C33 40 33 40 31 41 C29.09538796 40.30554915 27.22414553 39.51844514 25.375 38.6875 C16.57295514 34.91968056 7.38807158 31.98743217 -2.22265625 34.60546875 C-5.78906612 36.01720726 -5.78906612 36.01720726 -8 39 C-8.49036537 42.67774024 -8.44721086 44.38656917 -6.234375 47.421875 C-2.03365575 51.38095996 3.75862295 52.68117402 9.125 54.4375 C21.97605115 58.68787756 34.51369216 63.15111639 41.9375 75.125 C44.46815285 82.20764476 44.10405719 90.49267626 41.0625 97.3125 C36.08180483 105.91679081 28.54427798 111.41691559 19 114 C15.535 114.495 15.535 114.495 12 115 C12 120.28 12 125.56 12 131 C7.71 131 3.42 131 -1 131 C-1 125.72 -1 120.44 -1 115 C-3.31 115 -5.62 115 -8 115 C-16.55654314 113.17029895 -28.58989247 109.9819918 -34.56640625 103.23046875 C-35.27005636 99.61079113 -33.18716023 97.20861869 -31.25 94.3125 C-30.87617187 93.71888672 -30.50234375 93.12527344 -30.1171875 92.51367188 C-27.31607143 88.15803571 -27.31607143 88.15803571 -25 87 C-22.59075044 88.03934252 -20.27753572 89.13466781 -17.9375 90.3125 C-7.95171925 95.13432395 2.51366372 98.46219058 13.5 94.6875 C17.18207351 93.27785032 17.18207351 93.27785032 19 90 C19.50010524 87.04230823 19.50010524 87.04230823 19 84 C16.27281132 80.71225753 13.62257235 79.1354404 9.6875 77.5625 C8.63175781 77.1396875 7.57601562 76.716875 6.48828125 76.28125 C3.44806714 75.16457561 0.39354848 74.14839083 -2.69458008 73.17358398 C-12.07204363 70.20510147 -20.41599138 66.58158569 -27 59 C-27.556875 58.38125 -28.11375 57.7625 -28.6875 57.125 C-32.43892854 51.05125855 -32.90892823 43.95569286 -32 37 C-29.2980377 28.36628792 -23.99293528 22.61597939 -16.0625 18.4609375 C-10.07735253 15.78258401 -6.82603485 15 0 15 C0 10.05 0 5.1 0 0 Z " fill="#0E182E" transform="translate(654,313)"/>
<path d="M0 0 C0.98097656 0.54269531 1.96195313 1.08539063 2.97265625 1.64453125 C12.24474907 6.61370675 20.552269 9.55893365 31 11 C28.23328352 13.21653515 25.61613974 14.74137151 22.34375 16.09375 C21.41852539 16.47845459 20.49330078 16.86315918 19.54003906 17.25952148 C18.53682617 17.66887939 17.53361328 18.0782373 16.5 18.5 C15.44264648 18.93578369 14.38529297 19.37156738 13.29589844 19.82055664 C5.30825576 23.09623687 -2.71419939 26.28208977 -10.75 29.4375 C-11.91345947 29.89447266 -13.07691895 30.35144531 -14.27563477 30.82226562 C-20.25909385 33.16520862 -26.25199583 35.47914895 -32.26171875 37.75390625 C-59.15106205 47.9955585 -87.1436215 58.71978107 -99.94921875 86.53125 C-100.29597656 87.3459375 -100.64273437 88.160625 -101 89 C-101.35707031 89.8146875 -101.71414063 90.629375 -102.08203125 91.46875 C-107.37953076 104.64305589 -108.45146472 118.94614789 -109 133 C-116.24997422 133.28307925 -122.90961228 132.50974035 -130 131 C-134.63065284 110.81342987 -132.05102854 84.37584165 -122 66 C-115.71146697 56.28821279 -108.07806878 50.5744795 -97.6875 45.75 C-96.6869458 45.27965332 -95.6863916 44.80930664 -94.65551758 44.32470703 C-71.04455917 33.41891038 -45.8385255 23.95753129 -20.60351562 17.58276367 C-12.43218523 15.48290783 -7.23574074 12.40384405 -2.89306641 5.15136719 C-2.37752197 4.23339355 -2.37752197 4.23339355 -1.8515625 3.296875 C-1.24054688 2.20890625 -0.62953125 1.1209375 0 0 Z " fill="#1D95E1" transform="translate(441,488)"/>
<path d="M0 0 C4.04204605 1.61489297 6.75432311 4.47932167 9.7590332 7.51611328 C10.32383392 8.07901566 10.88863464 8.64191803 11.47055054 9.22187805 C13.33554806 11.08317314 15.19324776 12.95157069 17.05078125 14.8203125 C18.35072428 16.12144854 19.65103819 17.42221414 20.95170593 18.72262573 C23.6791657 21.45164986 26.4032341 24.1839997 29.12475586 26.91894531 C32.5961969 30.40729995 36.07410705 33.88911285 39.55439472 37.36863899 C42.24258844 40.05710618 44.92815577 42.74818421 47.61287498 45.4401207 C48.89318126 46.72358861 50.17407597 48.00646983 51.4555912 49.28873062 C63.58832044 61.43624034 63.58832044 61.43624034 68.67149353 67.4773407 C71.39060743 70.59383593 74.62165634 73.15379816 77.765625 75.82421875 C80.0579747 78.05645439 81.41285154 80.24185956 83 83 C73.71605764 83.09279208 64.43227558 83.16381144 55.1479702 83.20724869 C50.83659834 83.22809934 46.52554438 83.25637042 42.21435547 83.30175781 C38.0516613 83.34530627 33.88927239 83.36915608 29.72636795 83.37950897 C28.1403587 83.38688426 26.55436564 83.4012867 24.96848679 83.42292023 C22.74213671 83.4520753 20.51703845 83.45595117 18.29052734 83.45410156 C16.39190445 83.46742523 16.39190445 83.46742523 14.45492554 83.48101807 C9.18784493 82.74769953 6.14285226 80.29729175 2.6875 76.375 C-0.15162702 72.3791916 -0.1220861 70.07742289 -0.11352539 65.16357422 C-0.11374443 64.10975052 -0.11374443 64.10975052 -0.1139679 63.03463745 C-0.11327014 60.70795627 -0.10548419 58.38135473 -0.09765625 56.0546875 C-0.09579158 54.44328861 -0.09436791 52.83188916 -0.09336853 51.2204895 C-0.0895472 46.97571248 -0.07972018 42.73096958 -0.06866455 38.48620605 C-0.05844218 34.15617332 -0.05386914 29.82613507 -0.04882812 25.49609375 C-0.03809758 16.99738016 -0.02102575 8.49869432 0 0 Z " fill="#7B8CEC" transform="translate(725,265)"/>
<path d="M0 0 C19.74921273 -0.09339566 39.49838071 -0.16395579 59.2477684 -0.20724869 C68.41753263 -0.22788365 77.58715972 -0.25602203 86.75683594 -0.30175781 C94.74810382 -0.34159706 102.73927241 -0.36742602 110.73063684 -0.37635398 C114.96298274 -0.3815737 119.19504455 -0.39386108 123.4272995 -0.42292023 C127.40982225 -0.45004349 131.39194352 -0.45845136 135.37454987 -0.45243073 C136.83709392 -0.45353236 138.29965122 -0.46150496 139.76211548 -0.4768219 C141.75746987 -0.49669722 143.75303903 -0.48956041 145.74847412 -0.48101807 C147.42429377 -0.48654882 147.42429377 -0.48654882 149.13396835 -0.49219131 C152.65876619 0.11313169 153.8295275 1.2135621 156 4 C156.53125 6.21875 156.53125 6.21875 156.5 8.5 C156.51546875 9.62921875 156.51546875 9.62921875 156.53125 10.78125 C155.78677119 13.89054386 154.47567624 15.00468217 152 17 C149.19478703 17.50057125 149.19478703 17.50057125 145.89601135 17.50120544 C144.64402954 17.51103958 143.39204773 17.52087372 142.10212708 17.53100586 C140.71725192 17.52163407 139.33237947 17.51185476 137.94750977 17.50170898 C136.48706542 17.50549259 135.02662467 17.51099297 133.56619263 17.51808167 C129.60119174 17.53204967 125.63662416 17.52085678 121.67164731 17.50437045 C117.52197505 17.49052277 113.37232802 17.49697981 109.22264099 17.50050354 C102.2527671 17.50320619 95.28306535 17.48972643 88.31323242 17.46655273 C80.25725803 17.43995302 72.20157168 17.43819235 64.14556843 17.4499411 C56.39492521 17.46072474 48.6443861 17.45452655 40.89375114 17.44038582 C37.59600295 17.43463003 34.29833104 17.43470551 31.00058174 17.43945122 C27.11565623 17.44422753 23.2310456 17.43409245 19.34617996 17.41249657 C17.92117436 17.40693702 16.49613845 17.40645579 15.07113075 17.41144943 C13.12440428 17.41741521 11.17764726 17.40304591 9.23097229 17.38768005 C8.14199929 17.38525016 7.05302629 17.38282026 5.93105412 17.38031673 C2.58448038 16.94608456 0.68024348 16.02630169 -2 14 C-2.55859375 11.66015625 -2.55859375 11.66015625 -2.4375 9.0625 C-2.41558594 8.20785156 -2.39367187 7.35320312 -2.37109375 6.47265625 C-1.98865239 3.92438906 -1.19488662 2.25747262 0 0 Z " fill="#101A33" transform="translate(606,467)"/>
<path d="M0 0 C0.95755692 -0.00845947 1.91511383 -0.01691895 2.90168762 -0.02563477 C3.95060181 -0.01956207 4.99951599 -0.01348938 6.08021545 -0.00723267 C7.18613541 -0.01248962 8.29205536 -0.01774658 9.43148804 -0.02316284 C13.09717317 -0.0363959 16.76242608 -0.02761215 20.42811584 -0.01748657 C22.97015466 -0.01950649 25.51219291 -0.02241724 28.05422974 -0.02618408 C33.38652081 -0.03061206 38.71865624 -0.02444678 44.05091858 -0.01016235 C50.21363922 0.00615624 56.37606199 0.00088228 62.53877538 -0.01564157 C68.4681521 -0.03090295 74.39743636 -0.02927832 80.32682991 -0.02049637 C82.84945785 -0.0184924 85.37209336 -0.02096048 87.89471245 -0.02793503 C91.41899219 -0.03553926 94.94269733 -0.02395852 98.4669342 -0.00723267 C99.51382416 -0.01330536 100.56071411 -0.01937805 101.639328 -0.02563477 C102.59970474 -0.01717529 103.56008148 -0.00871582 104.54956055 0 C105.38265212 0.00113108 106.21574369 0.00226215 107.07408047 0.00342751 C109.8859842 0.47227454 111.27328213 1.44365313 113.33827209 3.38095093 C113.83436584 5.75595093 113.83436584 5.75595093 113.77577209 8.38095093 C113.77448303 9.24720093 113.77319397 10.11345093 113.77186584 11.00595093 C113.24831446 13.87369183 112.61446205 14.60875315 110.33827209 16.38095093 C108.18151093 16.76126766 108.18151093 16.76126766 105.6318512 16.76863098 C104.66443497 16.77853561 103.69701874 16.78844025 102.70028687 16.79864502 C101.6404509 16.79414337 100.58061493 16.78964172 99.48866272 16.78500366 C98.3713829 16.79186691 97.25410309 16.79873016 96.10296631 16.80580139 C92.40002327 16.82414261 88.69750092 16.82022163 84.99452209 16.81454468 C82.42766684 16.81910266 79.86081281 16.82440707 77.29396057 16.83042908 C71.91040003 16.8393744 66.52700189 16.83715328 61.14344788 16.82699585 C54.91816251 16.81550992 48.69330772 16.82959644 42.46807909 16.85639232 C36.4810047 16.88119925 30.49415231 16.88373136 24.50701904 16.87727547 C21.95843794 16.87712169 19.40984877 16.88321197 16.86129761 16.89556694 C13.3031629 16.91038576 9.74598549 16.89986633 6.18788147 16.88265991 C4.59812752 16.89716187 4.59812752 16.89716187 2.97625732 16.91195679 C2.00884109 16.90212265 1.04142487 16.89228851 0.04469299 16.88215637 C-1.21738857 16.88184245 -1.21738857 16.88184245 -2.50496674 16.88152218 C-4.66172791 16.38095093 -4.66172791 16.38095093 -6.43097687 14.49049473 C-7.84646911 12.06429903 -8.06506065 10.60922583 -8.03672791 7.81845093 C-8.04446228 7.05403687 -8.05219666 6.2896228 -8.06016541 5.50204468 C-7.19295926 0.88544728 -4.32564324 0.00587552 0 0 Z " fill="#0F182F" transform="translate(648.6617279052734,502.6190490722656)"/>
<path d="M0 0 C0.64624427 -0.0034177 1.29248854 -0.0068354 1.95831597 -0.01035666 C4.10980712 -0.01691156 6.26003255 0.00499811 8.41140747 0.0269165 C9.95907054 0.02804551 11.50673576 0.02741008 13.05439758 0.02514648 C17.246246 0.02400048 21.43763507 0.04749113 25.62937689 0.07544231 C30.01357528 0.10047503 34.39778462 0.10279944 38.78204346 0.10754395 C47.07990616 0.11996824 55.37755765 0.15278242 63.67532742 0.1929419 C73.12386637 0.23767664 82.57241549 0.25965093 92.021034 0.27972364 C111.4535486 0.32151561 130.88577372 0.3948611 150.31814575 0.48101807 C150.31814575 13.02101807 150.31814575 25.56101807 150.31814575 38.48101807 C149.98814575 38.48101807 149.65814575 38.48101807 149.31814575 38.48101807 C149.31814575 26.27101807 149.31814575 14.06101807 149.31814575 1.48101807 C129.32528825 1.54386576 109.33260142 1.61901834 89.33988667 1.71673298 C80.05701647 1.76170701 70.77418478 1.80111797 61.49124146 1.82745361 C53.40064269 1.85042068 45.31016561 1.88380421 37.21966332 1.92971963 C32.9354132 1.95366932 28.65128371 1.97238663 24.36696815 1.97863197 C20.33433992 1.98467496 16.30202045 2.00464615 12.26950645 2.03529358 C10.78968829 2.04408645 9.3098298 2.0477938 7.82998657 2.04602623 C5.80857354 2.04437414 3.78717396 2.06283527 1.76585388 2.08229065 C0.63481389 2.08689961 -0.4962261 2.09150858 -1.66154003 2.09625721 C-5.05464899 2.52850876 -6.90538457 3.52956614 -9.68185425 5.48101807 C-10.42435425 5.99664307 -11.16685425 6.51226807 -11.93185425 7.04351807 C-14.69416928 10.89102829 -14.44876802 14.84996274 -14.68185425 19.48101807 C-14.865176 21.85634423 -15.05272328 24.23134781 -15.24435425 26.60601807 C-15.39133587 28.56426555 -15.53757981 30.52256927 -15.68185425 32.48101807 C-14.80786987 32.86386963 -14.80786987 32.86386963 -13.91622925 33.25445557 C-11.46797202 34.59842894 -9.86442177 36.09912102 -7.93185425 38.10601807 C-7.3182605 38.73765869 -6.70466675 39.36929932 -6.07247925 40.02008057 C-5.38411987 40.74324463 -5.38411987 40.74324463 -4.68185425 41.48101807 C-7.68185425 41.48101807 -7.68185425 41.48101807 -9.40060425 40.02008057 C-9.98841675 39.38843994 -10.57622925 38.75679932 -11.18185425 38.10601807 C-13.31681436 35.83060005 -15.05306769 34.23354244 -17.68185425 32.48101807 C-18.36754299 29.31967404 -18.19108697 26.08285466 -18.18185425 22.85601807 C-18.21021362 21.9781665 -18.238573 21.10031494 -18.26779175 20.19586182 C-18.28654832 13.88427535 -17.0699384 9.16946168 -12.68185425 4.48101807 C-8.30794259 1.09274642 -5.51933883 -0.01766188 0 0 Z " fill="#13BBF5" transform="translate(559.6818542480469,263.51898193359375)"/>
<path d="M0 0 C0.99 0 1.98 0 3 0 C3.07000884 17.69763243 3.12294821 35.39522903 3.15543652 53.09296989 C3.17092078 61.30991106 3.19203994 69.52676631 3.22631836 77.74365234 C3.25617315 84.90354916 3.27556365 92.06338378 3.28226548 99.22334111 C3.28618444 103.01627051 3.29542652 106.8090219 3.31719017 110.60189438 C3.33749362 114.16905893 3.3438464 117.73597149 3.33932304 121.30318832 C3.34054696 123.24229895 3.35672116 125.18138189 3.3732605 127.12042236 C3.36707451 128.84103378 3.36707451 128.84103378 3.36076355 130.59640503 C3.36352893 131.59747221 3.36629431 132.59853939 3.36914349 133.62994194 C3.18641746 134.80312068 3.18641746 134.80312068 3 136 C1.515 136.99 1.515 136.99 0 138 C0 95.76 0 53.52 0 10 C-1.32 10.99 -2.64 11.98 -4 13 C-3.71125 12.29875 -3.4225 11.5975 -3.125 10.875 C-0.87644912 5.58674385 -0.87644912 5.58674385 0 0 Z " fill="#976ACA" transform="translate(806,363)"/>
<path d="M0 0 C0.99 0.495 0.99 0.495 2 1 C-2.75770663 4.75917561 -7.56068926 8.41937317 -12.5 11.9375 C-17.64424352 15.64798377 -22.31300567 19.73738142 -27 24 C-31.7 28 -31.7 28 -34 28 C-33.67 26.68 -33.34 25.36 -33 24 C-33.65613281 24.40476562 -34.31226563 24.80953125 -34.98828125 25.2265625 C-38.66403335 27.39101315 -42.41402021 29.38724798 -46.1875 31.375 C-46.94635498 31.77493164 -47.70520996 32.17486328 -48.48706055 32.58691406 C-50.65650079 33.72757864 -52.82772017 34.8647541 -55 36 C-55.96164062 36.50273438 -56.92328125 37.00546875 -57.9140625 37.5234375 C-63.09318272 40.17204296 -68.37211825 42.46781835 -73.7578125 44.6640625 C-76.11885564 45.63692606 -78.46417098 46.62851469 -80.8046875 47.6484375 C-81.44051758 47.92502197 -82.07634766 48.20160645 -82.73144531 48.48657227 C-84.54318835 49.27681552 -86.35365649 50.06997972 -88.1640625 50.86328125 C-91 52 -91 52 -93 52 C-93 51.34 -93 50.68 -93 50 C-92.19594727 49.65855957 -91.39189453 49.31711914 -90.56347656 48.96533203 C-74.46291174 42.10938538 -58.48658124 35.17460549 -43 27 C-42.27554688 26.62375488 -41.55109375 26.24750977 -40.8046875 25.85986328 C-19.04060544 14.80041539 -19.04060544 14.80041539 0 0 Z " fill="#9E95E4" transform="translate(810,525)"/>
<path d="M0 0 C0 21.45 0 42.9 0 65 C-0.33 65 -0.66 65 -1 65 C-1 44.21 -1 23.42 -1 2 C-9.5078125 3.8871875 -9.5078125 3.8871875 -18.1875 5.8125 C-23.52416992 6.99536133 -23.52416992 6.99536133 -25.7290802 7.48405457 C-28.0080798 7.99097682 -30.28598436 8.50267943 -32.56396484 9.01416016 C-35.36203688 9.64120889 -38.16294214 10.24600604 -40.97119141 10.82568359 C-42.13183105 11.0727002 -43.2924707 11.3197168 -44.48828125 11.57421875 C-45.49028564 11.78006592 -46.49229004 11.98591309 -47.5246582 12.19799805 C-50.31486344 13.10201464 -51.43137471 13.51612829 -53 16 C-53.33079338 18.57817111 -53.4883563 20.92920167 -53.51171875 23.51171875 C-53.52966995 24.23994339 -53.54762115 24.96816803 -53.56611633 25.71846008 C-53.62024213 28.04141471 -53.6541208 30.36416366 -53.6875 32.6875 C-53.72067125 34.26370051 -53.75516073 35.83987388 -53.79101562 37.41601562 C-53.8759693 41.27719536 -53.94276876 45.13831387 -54 49 C-54.33 49 -54.66 49 -55 49 C-55.07425143 44.23115433 -55.12864936 39.4626464 -55.16479492 34.69335938 C-55.17986565 33.07155494 -55.20032593 31.44979116 -55.22631836 29.828125 C-55.26277829 27.49468954 -55.27974314 25.16179369 -55.29296875 22.828125 C-55.30845261 22.10506165 -55.32393646 21.38199829 -55.33988953 20.63702393 C-55.34090127 17.59900202 -55.17114199 15.3401677 -53.7956543 12.60620117 C-51.55919976 10.60570703 -49.90150914 10.1195245 -46.9765625 9.47265625 C-45.96505127 9.2401416 -44.95354004 9.00762695 -43.91137695 8.76806641 C-42.82687256 8.53522949 -41.74236816 8.30239258 -40.625 8.0625 C-38.36059932 7.55112545 -36.09627773 7.03940063 -33.83203125 6.52734375 C-32.69072754 6.27452637 -31.54942383 6.02170898 -30.37353516 5.76123047 C-27.20098989 5.04535291 -24.04327155 4.28696321 -20.88671875 3.50390625 C-19.94425293 3.2711499 -19.00178711 3.03839355 -18.03076172 2.79858398 C-16.26196521 2.36027704 -14.49400884 1.91856092 -12.72705078 1.47290039 C-11.92638184 1.27817139 -11.12571289 1.08344238 -10.30078125 0.8828125 C-9.61153564 0.71152832 -8.92229004 0.54024414 -8.2121582 0.36376953 C-6 0 -6 0 0 0 Z " fill="#4CD7F0" transform="translate(298,408)"/>
<path d="M0 0 C-0.98057373 0.02187378 -0.98057373 0.02187378 -1.98095703 0.04418945 C-27.3295964 0.67489676 -48.37487459 3.7201087 -66.78515625 22.71484375 C-67.18605469 23.13894531 -67.58695312 23.56304687 -68 24 C-68 20.00112592 -66.6487951 18.93067701 -64 16 C-49.63297858 3.73604586 -18.90827906 -10.64171215 0 0 Z " fill="#91D6E3" transform="translate(491,298)"/>
<path d="M0 0 C1.4552777 2.9105554 0.63516661 4.95849052 0.0625 8.125 C-0.13214844 9.22070312 -0.32679688 10.31640625 -0.52734375 11.4453125 C-0.68332031 12.28835938 -0.83929688 13.13140625 -1 14 C-1.33 14 -1.66 14 -2 14 C-2 12.35 -2 10.7 -2 9 C-13.9320197 20.12306921 -16.17307543 40.70189547 -17 56 C-19.35676229 53.64323771 -19.31984112 53.15326258 -19.375 49.9375 C-18.95715809 33.80415954 -11.68832212 11.68832212 0 0 Z " fill="#1BCBE0" transform="translate(149,541)"/>
<path d="M0 0 C0.53625 0.2475 1.0725 0.495 1.625 0.75 C0.2946875 1.3378125 0.2946875 1.3378125 -1.0625 1.9375 C-4.71994344 3.93874264 -6.87715665 5.39575321 -9.375 8.75 C-10.16184872 12.06467767 -10.24300528 15.35454957 -10.375 18.75 C-10.55591637 21.12551058 -10.74350666 23.50052157 -10.9375 25.875 C-11.08448162 27.83324748 -11.23072556 29.7915512 -11.375 31.75 C-10.50101563 32.13285156 -10.50101563 32.13285156 -9.609375 32.5234375 C-7.16111777 33.86741087 -5.55756752 35.36810296 -3.625 37.375 C-3.01140625 38.00664062 -2.3978125 38.63828125 -1.765625 39.2890625 C-1.07726562 40.01222656 -1.07726562 40.01222656 -0.375 40.75 C-3.375 40.75 -3.375 40.75 -5.09375 39.2890625 C-5.6815625 38.65742188 -6.269375 38.02578125 -6.875 37.375 C-9.00996011 35.09958199 -10.74621344 33.50252437 -13.375 31.75 C-14.06068874 28.58865598 -13.88423272 25.35183659 -13.875 22.125 C-13.90335938 21.24714844 -13.93171875 20.36929687 -13.9609375 19.46484375 C-13.9800798 13.0234605 -12.54252966 8.70620117 -8.375 3.75 C-3.45823831 -0.36402509 -3.45823831 -0.36402509 0 0 Z " fill="#0EB2DD" transform="translate(555.375,264.25)"/>
<path d="M0 0 C0.66 0.33 1.32 0.66 2 1 C-2.75770663 4.75917561 -7.56068926 8.41937317 -12.5 11.9375 C-17.64424352 15.64798377 -22.31300567 19.73738142 -27 24 C-31.7 28 -31.7 28 -34 28 C-33.505 27.1028125 -33.505 27.1028125 -33 26.1875 C-31.79212012 23.94613529 -31.79212012 23.94613529 -32 21 C-30.24682617 19.59301758 -30.24682617 19.59301758 -27.79296875 18.14453125 C-26.90053467 17.60787842 -26.00810059 17.07122559 -25.08862305 16.51831055 C-24.13125244 15.95539307 -23.17388184 15.39247559 -22.1875 14.8125 C-14.50685418 10.19093572 -7.09131596 5.49701542 0 0 Z " fill="#AD95F3" transform="translate(810,525)"/>
<path d="M0 0 C0.33 0 0.66 0 1 0 C1.01030746 0.79656006 1.02061493 1.59312012 1.03123474 2.41381836 C1.12949392 9.94606067 1.23204682 17.47822684 1.33933926 25.01034546 C1.39434089 28.88203268 1.44772247 32.75372769 1.49731445 36.62548828 C1.54529626 40.36677099 1.59764755 44.10797007 1.65294075 47.84915161 C1.67321225 49.27155455 1.69194879 50.69398027 1.70907402 52.11642456 C1.79468507 59.14845767 1.90940338 66.04502087 3 73 C4.98 72.01 4.98 72.01 7 71 C6.3125 72.9375 6.3125 72.9375 5 75 C2.525 75.495 2.525 75.495 0 76 C0 50.92 0 25.84 0 0 Z " fill="#166FA4" transform="translate(322,447)"/>
<path d="M0 0 C0 0.33 0 0.66 0 1 C-3.5207097 1.16934717 -7.04158448 1.33499193 -10.5625 1.5 C-11.55314453 1.54769531 -12.54378906 1.59539063 -13.56445312 1.64453125 C-18.71628462 1.88415132 -23.84264094 2.05786658 -29 2 C-29 2.66 -29 3.32 -29 4 C-28.01 4.33 -27.02 4.66 -26 5 C-35.72395343 4.367277 -45.34455651 3.27665042 -55 2 C-55 1.67 -55 1.34 -55 1 C-36.66018932 0.34556621 -18.35469091 -0.16519222 0 0 Z " fill="#4BD9F9" transform="translate(395,649)"/>
<path d="M0 0 C0.66 0.33 1.32 0.66 2 1 C1.34 1.66 0.68 2.32 0 3 C19.14 3.33 38.28 3.66 58 4 C58 4.33 58 4.66 58 5 C36.55 5 15.1 5 -7 5 C-2 1 -2 1 0 0 Z " fill="#7767E1" transform="translate(699,462)"/>
<path d="M0 0 C-2.83584778 1.49904082 -5.63061686 2.59743441 -8.6875 3.5625 C-11.60083039 4.3454921 -11.60083039 4.3454921 -14 6 C-14.12185143 7.34983748 -14.17766831 8.70574701 -14.20532227 10.06079102 C-14.2352401 11.35201622 -14.2352401 11.35201622 -14.26576233 12.66932678 C-14.29083107 14.07244362 -14.29083107 14.07244362 -14.31640625 15.50390625 C-14.33718735 16.45692123 -14.35796844 17.40993622 -14.37937927 18.39183044 C-14.44498177 21.4486441 -14.50380918 24.50554656 -14.5625 27.5625 C-14.60567506 29.62956663 -14.64928901 31.69662414 -14.69335938 33.76367188 C-14.80067401 38.84235595 -14.90191091 43.9211297 -15 49 C-15.33 49 -15.66 49 -16 49 C-16.09888089 42.80701358 -16.17147486 36.61448668 -16.21972656 30.42089844 C-16.23984126 28.31404618 -16.26713667 26.20724975 -16.30175781 24.10058594 C-16.35028168 21.07212553 -16.37297016 18.04440322 -16.390625 15.015625 C-16.41127014 14.07382385 -16.43191528 13.13202271 -16.45318604 12.16168213 C-16.45542873 5.62482456 -16.45542873 5.62482456 -14.12011719 2.42089844 C-9.7225599 -0.52633595 -5.1528367 -0.10103601 0 0 Z " fill="#51E8FC" transform="translate(339,363)"/>
<path d="M0 0 C1.44246094 -0.02126953 1.44246094 -0.02126953 2.9140625 -0.04296875 C5.375 0.1875 5.375 0.1875 7.375 2.1875 C6.818125 2.16429687 6.26125 2.14109375 5.6875 2.1171875 C-0.41808065 1.97279877 -6.37232639 2.11761679 -11.6875 5.5 C-12.85615403 7.22442993 -12.85615403 7.22442993 -12.375 9.625 C-12.1275 10.470625 -11.88 11.31625 -11.625 12.1875 C-11.3465625 13.3321875 -11.3465625 13.3321875 -11.0625 14.5 C-10.918125 15.056875 -10.77375 15.61375 -10.625 16.1875 C-13.36206304 13.96363628 -14.51443111 12.7649153 -15.1875 9.25 C-14.43650901 5.1612713 -12.83810204 3.74337662 -9.625 1.1875 C-6.43006767 0.09052753 -3.36103202 0.02264846 0 0 Z " fill="#237ED1" transform="translate(659.625,345.8125)"/>
<path d="M0 0 C0.8971875 0.309375 0.8971875 0.309375 1.8125 0.625 C1.06226563 1.01429688 0.31203125 1.40359375 -0.4609375 1.8046875 C-8.44028475 6.16619469 -14.05199057 10.87865445 -20.1875 17.625 C-20.1875 13.61316534 -18.86198422 12.55758752 -16.1875 9.625 C-14.38010346 8.16911454 -12.52326553 6.77274256 -10.625 5.4375 C-9.67496094 4.76332031 -8.72492188 4.08914063 -7.74609375 3.39453125 C-2.27418183 -0.38985974 -2.27418183 -0.38985974 0 0 Z " fill="#92DEEE" transform="translate(443.1875,304.375)"/>
<path d="M0 0 C0.66 0.33 1.32 0.66 2 1 C-4.54557947 6.17181588 -11.22911473 11.12749378 -18 16 C-18.99 15.34 -19.98 14.68 -21 14 C-19.90300781 13.32453125 -18.80601562 12.6490625 -17.67578125 11.953125 C-16.22124887 11.05225333 -14.76682764 10.15120216 -13.3125 9.25 C-12.59126953 8.8065625 -11.87003906 8.363125 -11.12695312 7.90625 C-7.21372354 5.47611656 -3.52919771 2.97928327 0 0 Z " fill="#A285E4" transform="translate(810,525)"/>
<path d="M0 0 C0.33 0 0.66 0 1 0 C1.66 5.28 2.32 10.56 3 16 C4.32 15.34 5.64 14.68 7 14 C6.3125 15.9375 6.3125 15.9375 5 18 C3.35 18.33 1.7 18.66 0 19 C0 12.73 0 6.46 0 0 Z " fill="#145292" transform="translate(322,504)"/>
<path d="M0 0 C7.625 1.75 7.625 1.75 11 4 C10.01 4.33 9.02 4.66 8 5 C8.825 5.763125 9.65 6.52625 10.5 7.3125 C13 10 13 10 13 13 C8.66666667 8.66666667 4.33333333 4.33333333 0 0 Z " fill="#BE85E6" transform="translate(828,434)"/>
<path d="M0 0 C0.66 0.66 1.32 1.32 2 2 C-2.29 6.29 -6.58 10.58 -11 15 C-11.66 14.67 -12.32 14.34 -13 14 C-12.48050781 13.49210938 -11.96101562 12.98421875 -11.42578125 12.4609375 C-7.3775629 8.46509906 -3.55349109 4.44186386 0 0 Z " fill="#B287EA" transform="translate(838,499)"/>
<path d="M0 0 C0 3 0 3 -2.625 5.91796875 C-3.74249406 7.01550756 -4.86785643 8.10507895 -6 9.1875 C-6.57234375 9.74630859 -7.1446875 10.30511719 -7.734375 10.88085938 C-9.14962788 12.26073093 -10.57397155 13.63126734 -12 15 C-12 12 -12 12 -9.8125 9.6875 C-8.884375 8.800625 -7.95625 7.91375 -7 7 C-6.09069458 5.92794957 -5.19450013 4.84462516 -4.3125 3.75 C-2 1 -2 1 0 0 Z " fill="#BA8BED" transform="translate(859,528)"/>
<path d="M0 0 C0.66 0.33 1.32 0.66 2 1 C1.34 1.66 0.68 2.32 0 3 C3.96 3.33 7.92 3.66 12 4 C12 4.33 12 4.66 12 5 C5.73 5 -0.54 5 -7 5 C-2 1 -2 1 0 0 Z " fill="#595DDA" transform="translate(699,462)"/>
<path d="M0 0 C0.99 0.33 1.98 0.66 3 1 C0.03 3.97 -2.94 6.94 -6 10 C-6.66 9.67 -7.32 9.34 -8 9 C-6.85459775 7.68712379 -5.70866567 6.37470979 -4.5625 5.0625 C-3.92441406 4.33160156 -3.28632813 3.60070312 -2.62890625 2.84765625 C-1.77458541 1.87860647 -0.91348825 0.91348825 0 0 Z " fill="#22ABE6" transform="translate(330,541)"/>
<path d="M0 0 C-3.52344767 1.8620498 -7.08346273 3.04107444 -10.87890625 4.21875 C-13.25043123 4.99872125 -13.25043123 4.99872125 -16 7 C-15.4375 4.625 -15.4375 4.625 -14 2 C-9.28467974 0.05839754 -5.05944018 -0.20650776 0 0 Z " fill="#72D7E9" transform="translate(339,363)"/>
<path d="M0 0 C1.93816735 0.1141866 3.87555099 0.24173423 5.8125 0.375 C6.89144531 0.44460938 7.97039062 0.51421875 9.08203125 0.5859375 C12 1 12 1 15 3 C4.44191344 3.3690205 4.44191344 3.3690205 0 1 C0 0.67 0 0.34 0 0 Z " fill="#1A9BD7" transform="translate(275,645)"/>
<path d="M0 0 C0 0.66 0 1.32 0 2 C0.99 2.33 1.98 2.66 3 3 C-1.29 2.67 -5.58 2.34 -10 2 C-6.3558226 -0.4294516 -4.28758728 -0.16179575 0 0 Z " fill="#40C8F7" transform="translate(366,651)"/>
<path d="M0 0 C0.66 0 1.32 0 2 0 C1.63076923 7.38461538 1.63076923 7.38461538 -1.5625 10.5 C-2.7690625 11.2425 -2.7690625 11.2425 -4 12 C-3.71125 11.29875 -3.4225 10.5975 -3.125 9.875 C-0.97598999 5.06827751 -0.97598999 5.06827751 0 0 Z " fill="#9A79F4" transform="translate(806,364)"/>
<path d="M0 0 C0.33 0.66 0.66 1.32 1 2 C-1.4 8.4 -1.4 8.4 -4 11 C-3.48964169 6.6109185 -2.47785723 3.66291938 0 0 Z " fill="#6DD9EE" transform="translate(417,328)"/>
<path d="M0 0 C0 0.99 0 1.98 0 3 C-1.75 4.0625 -1.75 4.0625 -4 5 C-5.32 4.67 -6.64 4.34 -8 4 C-5.36 2.68 -2.72 1.36 0 0 Z " fill="#9990D7" transform="translate(776,547)"/>
<path d="M0 0 C2.64 0 5.28 0 8 0 C6.25 1.5625 6.25 1.5625 4 3 C1.75 2.6875 1.75 2.6875 0 2 C0 1.34 0 0.68 0 0 Z " fill="#22B2F1" transform="translate(464,499)"/>
</svg>
